<svg width="327" height="133" viewBox="0 0 327 133" fill="none" xmlns="http://www.w3.org/2000/svg">
<g clip-path="url(#clip0_1528_31)">
<path d="M11.3153 96.6997C8.50881 95.6731 6.17215 94.4034 4.38155 92.8771C1.49882 90.4187 -0.0250861 87.2579 0.000312382 83.746C0.0638086 73.7774 12.3059 64.5382 22.5796 58.5273C36.3202 50.4903 54.5436 43.4934 73.8718 38.8198C106.547 30.9178 134.244 31.4176 144.429 40.1165C147.312 42.5749 148.835 45.7356 148.81 49.2476C148.747 59.2162 136.504 68.4554 126.231 74.4663C112.49 82.5033 94.2668 89.5002 74.9386 94.1738C48.0162 100.684 24.4591 101.495 11.3153 96.6997Z" fill="#21AAC5"/>
<path d="M106.835 131.498C93.6782 126.703 75.5437 110.724 58.0187 88.0176C45.4465 71.7139 35.0839 54.3162 28.8613 38.9986C24.2133 27.5577 19.8575 12.2671 25.5595 4.35165C27.5532 1.56909 30.5757 0.0697513 34.2711 0.00221341C47.3387 -0.227415 69.5115 17.427 90.7701 44.9824C103.342 61.2861 113.705 78.6838 119.928 94.0014C124.575 105.442 128.931 120.733 123.229 128.648C121.223 131.431 118.213 132.93 114.505 132.998C112.206 133.038 109.628 132.525 106.822 131.498H106.835Z" fill="#21AAC5"/>
<path d="M74.6229 129.459C65.4414 129.459 60.349 127.514 58.1139 123.138C56.9329 120.814 56.7043 118.815 57.0979 116.6C54.1517 115.411 51.523 113.061 50.7356 110.954C50.1642 109.414 50.4181 107.834 51.396 106.739C51.8786 106.105 52.3357 105.537 52.7675 104.997C54.5708 102.741 55.5613 101.499 55.9931 98.8105C56.2598 97.1086 53.5041 93.5831 47.7894 88.3422C46.8116 87.4507 46.0369 86.7348 45.5162 86.1539C38.265 78.252 34.2647 67.6891 34.2647 56.4238C34.1885 45.0099 38.3285 34.2578 45.948 26.1533C53.6057 18.0082 63.7904 13.5778 74.6483 13.6453C74.7499 13.6453 74.8515 13.6453 74.9658 13.6453C85.6712 13.6453 95.7544 18.0758 103.349 26.1533C110.968 34.2578 115.108 45.0099 115.032 56.4508C115.032 67.6891 111.032 78.252 103.768 86.1675C103.247 86.7348 102.472 87.4372 101.495 88.3422C95.7798 93.5831 93.0241 97.0951 93.2908 98.797C93.7099 101.485 94.7131 102.728 96.5164 104.984C96.9482 105.524 97.4054 106.105 97.8879 106.726C98.8912 107.861 99.1452 109.495 98.5483 111.089C97.8371 113.007 95.7798 115.06 93.3289 116.276C93.2527 117.559 92.8209 118.734 92.5669 119.423C92.4399 119.761 92.313 120.112 92.186 120.504C90.7255 124.934 87.4999 129.459 74.6483 129.459H74.6229Z" fill="white"/>
<path d="M83.9538 36.6097C76.9058 28.235 69.8831 21.022 63.2287 15.2812C56.7267 17.2399 50.7707 20.9275 45.8434 26.1549C39.1255 33.3004 35.1126 42.4991 34.3125 52.4002C45.9831 46.9701 59.584 42.2695 73.7818 38.825C77.2359 37.9876 80.6139 37.2581 83.9411 36.6097H83.9538Z" fill="#287A99"/>
<path d="M90.6945 44.9804C98.3775 54.9355 105.412 65.4504 111 75.5C113.68 69.7053 115.254 63.2756 115.254 56.5894C115.318 48.3093 112.956 40.2393 108.867 33.418C101.298 33.8232 92.7898 34.8768 83.9512 36.6058C86.1989 39.2803 88.4594 42.0763 90.6945 44.9804Z" fill="#287A99"/>
<path d="M166.363 99.9811C166.414 98.036 166.452 95.6046 166.452 92.714C166.452 89.4857 166.427 87.0543 166.363 85.4199H173.449C174.719 85.4199 175.773 85.528 176.599 85.7171C177.424 85.9197 178.059 86.2709 178.491 86.7842C178.923 87.2975 179.139 88.0134 179.139 88.9184C179.139 89.7423 178.999 90.3907 178.732 90.8635C178.466 91.3362 178.008 91.7009 177.374 91.9441C176.726 92.1872 175.812 92.3493 174.618 92.4304V92.7275C175.862 92.8085 176.827 92.9571 177.526 93.1868C178.224 93.4164 178.72 93.7676 179.024 94.2404C179.329 94.7131 179.482 95.348 179.482 96.1584C179.482 97.1175 179.278 97.8739 178.885 98.4277C178.478 98.9815 177.856 99.3732 177.018 99.6029C176.18 99.8325 175.088 99.9541 173.754 99.9541H166.363V99.9811ZM172.662 91.5929C173.526 91.5929 174.148 91.4578 174.542 91.1876C174.935 90.9175 175.138 90.5258 175.138 89.999C175.138 89.5532 175.05 89.202 174.872 88.9454C174.694 88.6888 174.427 88.5131 174.072 88.4051C173.716 88.297 173.246 88.243 172.688 88.243H170.491V91.5929H172.675H172.662ZM173.068 97.1715C173.653 97.1715 174.11 97.104 174.44 96.9824C174.783 96.8608 175.024 96.6582 175.177 96.4151C175.329 96.1584 175.405 95.8207 175.405 95.375C175.405 94.8347 175.202 94.4295 174.808 94.1458C174.402 93.8621 173.78 93.7271 172.941 93.7271H170.491V97.1715H173.068Z" fill="white"/>
<path d="M186.536 99.9811C186.562 98.3332 186.574 95.8478 186.574 92.5384C186.574 89.229 186.562 86.9328 186.536 85.4334H189.978C189.94 87.7027 189.927 90.4718 189.952 93.7541C189.952 94.2404 189.952 94.7131 189.952 95.1994C189.952 95.6857 189.927 96.199 189.901 96.7528H190.194C190.27 96.3881 190.371 95.9963 190.498 95.5776C190.638 95.1589 190.765 94.7401 190.905 94.3349L194.372 85.4199H199.172C199.146 87.1084 199.134 89.1075 199.134 91.4038C199.134 94.3619 199.134 96.3745 199.159 97.4552L199.197 99.9811H195.705C195.743 96.8338 195.756 93.9297 195.73 91.2687C195.73 91.0121 195.73 90.7419 195.73 90.4447C195.73 90.1476 195.743 89.8639 195.756 89.5803L195.781 88.7293H195.489C195.362 89.3101 195.159 89.972 194.892 90.7149L194.638 91.2822L191.298 99.9946H186.523L186.536 99.9811Z" fill="white"/>
<path d="M202.068 99.9871C202.119 97.7854 202.157 95.3675 202.157 92.7471C202.157 90.1266 202.132 87.6547 202.068 85.4395H206.208C206.17 87.4521 206.145 89.8834 206.145 92.7471V94.0032C206.132 96.6642 206.145 98.6499 206.208 99.9871H202.068ZM204.862 91.8015C206.246 91.8556 207.554 91.8961 208.799 91.8961C209.802 91.8961 211.059 91.8691 212.558 91.8015V93.6926C211.047 93.6386 209.789 93.598 208.799 93.598C207.554 93.598 206.246 93.625 204.862 93.6926V91.8015ZM211.25 99.9871C211.301 97.6233 211.339 95.2054 211.339 92.7471C211.339 90.0861 211.313 87.6547 211.25 85.4395H215.415C215.377 87.0739 215.352 89.5052 215.352 92.7471C215.352 95.9889 215.377 98.3662 215.415 99.9871H211.25Z" fill="white"/>
<path d="M218.297 99.9871C218.348 97.7854 218.386 95.3675 218.386 92.7471C218.386 90.1266 218.36 87.6547 218.297 85.4395H222.437C222.399 87.4521 222.373 89.8834 222.373 92.7471V94.0032C222.361 96.6642 222.373 98.6499 222.437 99.9871H218.297ZM221.091 91.8015C222.475 91.8556 223.783 91.8961 225.027 91.8961C226.031 91.8961 227.288 91.8691 228.786 91.8015V93.6926C227.275 93.6386 226.018 93.598 225.027 93.598C223.783 93.598 222.475 93.625 221.091 93.6926V91.8015ZM227.478 99.9871C227.529 97.6233 227.567 95.2054 227.567 92.7471C227.567 90.0861 227.542 87.6547 227.478 85.4395H231.644C231.606 87.0739 231.58 89.5052 231.58 92.7471C231.58 95.9889 231.606 98.3662 231.644 99.9871H227.478Z" fill="white"/>
<path d="M240.761 100.249C238.539 100.249 236.824 99.6146 235.643 98.3313C234.462 97.0481 233.865 95.1841 233.865 92.7392C233.865 91.1048 234.132 89.7135 234.653 88.5789C235.186 87.4442 235.961 86.5798 236.989 85.9854C238.018 85.4046 239.275 85.1074 240.748 85.1074C242.221 85.1074 243.517 85.4046 244.558 85.9854C245.599 86.5663 246.399 87.4307 246.933 88.5789C247.479 89.7135 247.746 91.1048 247.746 92.7122C247.746 95.1706 247.149 97.0481 245.942 98.3313C244.736 99.6146 243.009 100.249 240.748 100.249H240.761ZM241.307 97.1697C241.65 97.1697 241.955 97.1157 242.234 97.0211C242.513 96.9266 242.767 96.778 242.996 96.6024C243.199 96.0486 243.339 95.4407 243.453 94.7788C243.555 94.117 243.606 93.4146 243.606 92.6582C243.606 91.1858 243.326 90.0782 242.767 89.3218C242.209 88.5654 241.358 88.1871 240.215 88.1871C239.847 88.1871 239.516 88.2547 239.212 88.4033C238.907 88.5519 238.64 88.7545 238.424 89.0246C238.297 89.5919 238.196 90.1863 238.119 90.7941C238.043 91.402 238.005 92.0503 238.005 92.7392C238.005 94.198 238.272 95.2921 238.818 96.0486C239.364 96.805 240.189 97.1697 241.307 97.1697Z" fill="white"/>
<path d="M250.021 99.9811C250.072 98.036 250.11 95.6046 250.11 92.714C250.11 89.4857 250.085 87.0543 250.021 85.4199H257.108C258.378 85.4199 259.432 85.528 260.257 85.7171C261.083 85.9197 261.717 86.2709 262.149 86.7842C262.581 87.2975 262.797 88.0134 262.797 88.9184C262.797 89.7423 262.657 90.3907 262.391 90.8635C262.124 91.3362 261.667 91.7009 261.032 91.9441C260.384 92.1872 259.47 92.3493 258.276 92.4304V92.7275C259.521 92.8085 260.486 92.9571 261.184 93.1868C261.883 93.4164 262.378 93.7676 262.683 94.2404C262.987 94.7131 263.14 95.348 263.14 96.1584C263.14 97.1175 262.937 97.8739 262.543 98.4277C262.137 98.9815 261.514 99.3732 260.676 99.6029C259.838 99.8325 258.746 99.9541 257.412 99.9541H250.034L250.021 99.9811ZM256.32 91.5929C257.184 91.5929 257.806 91.4578 258.2 91.1876C258.593 90.9175 258.797 90.5258 258.797 89.999C258.797 89.5532 258.708 89.202 258.53 88.9454C258.352 88.6888 258.086 88.5131 257.73 88.4051C257.374 88.297 256.904 88.243 256.346 88.243H254.149V91.5929H256.333H256.32ZM256.727 97.1715C257.311 97.1715 257.768 97.104 258.098 96.9824C258.441 96.8608 258.682 96.6582 258.835 96.4151C258.987 96.1584 259.063 95.8207 259.063 95.375C259.063 94.8347 258.86 94.4295 258.466 94.1458C258.06 93.8621 257.438 93.7271 256.6 93.7271H254.149V97.1715H256.727Z" fill="white"/>
<path d="M268.807 100.278C267.943 100.278 267.194 100.13 266.547 99.8325C265.899 99.5353 265.391 99.1031 265.035 98.5628C264.68 98.0225 264.502 97.3876 264.502 96.6582C264.502 95.7397 264.794 94.9697 265.391 94.3349C265.988 93.7 266.775 93.2138 267.766 92.8896C268.756 92.5654 269.823 92.4033 270.979 92.4033C271.512 92.4033 272.401 92.4438 273.62 92.5384V92.2007C273.607 91.4172 273.531 90.7554 273.391 90.2016C273.252 89.6478 272.972 89.202 272.553 88.8643C272.134 88.5266 271.537 88.3645 270.763 88.3645C270.496 88.3915 270.255 88.4591 270.039 88.5536C269.823 88.6482 269.632 88.7833 269.442 88.9454C269.277 89.2696 269.124 89.6613 268.997 90.0935C268.87 90.5257 268.782 91.012 268.718 91.5523L264.769 90.9715C264.921 89.6613 265.277 88.5807 265.835 87.7027C266.394 86.8382 267.143 86.1763 268.096 85.7441C269.048 85.3118 270.153 85.0957 271.423 85.0957C272.922 85.0957 274.115 85.3523 275.03 85.8791C275.944 86.4059 276.604 87.1624 277.011 88.1619C277.417 89.1615 277.633 90.4042 277.646 91.9035C277.646 93.1462 277.646 94.0242 277.671 94.5105V96.2394C277.684 97.4957 277.696 98.7383 277.696 99.9675H273.569L273.861 96.1449H273.582C273.379 96.9554 273.074 97.6712 272.655 98.2791C272.236 98.9004 271.69 99.3732 271.042 99.7244C270.394 100.076 269.645 100.251 268.794 100.251L268.807 100.278ZM270.585 97.1715C271.004 97.1715 271.436 97.0364 271.855 96.7797C272.274 96.5231 272.655 96.2124 272.972 95.8747C273.303 95.537 273.518 95.2669 273.633 95.0508V93.7676C273.391 93.7541 273.137 93.7405 272.858 93.7405C272.579 93.7405 272.337 93.7405 272.109 93.7405H271.956C271.334 93.754 270.763 93.8216 270.255 93.9161C269.734 94.0242 269.315 94.2133 268.972 94.4835C268.629 94.7671 268.464 95.1318 268.464 95.5911C268.464 96.1314 268.655 96.5231 269.048 96.7797C269.442 97.0364 269.95 97.158 270.585 97.158V97.1715Z" fill="white"/>
<path d="M280.609 99.9811C280.66 97.7658 280.698 95.3345 280.698 92.687C280.698 90.0395 280.673 87.6217 280.609 85.4199H284.749C284.711 87.9188 284.699 90.3502 284.711 92.687L284.737 94.8212C284.737 94.8212 284.749 96.5501 284.775 99.9676H280.609V99.9811ZM283.403 96.7663C285.194 96.8068 287.403 96.8338 290.02 96.8338V99.9811H283.403V96.7663ZM289.689 99.9811C289.766 96.7393 289.791 94.3214 289.791 92.741C289.804 89.4452 289.791 87.0003 289.753 85.4334H293.918C293.867 87.446 293.829 89.8639 293.829 92.7005C293.829 95.5371 293.867 98.09 293.931 99.9946H289.677L289.689 99.9811ZM291.378 102.885V99.9811H289.893L289.854 96.8338H295.506C295.455 98.5088 295.417 100.535 295.417 102.885H291.378Z" fill="white"/>
<path d="M297.767 99.9811C297.792 98.3332 297.805 95.8478 297.805 92.5384C297.805 89.229 297.792 86.9328 297.767 85.4334H301.208C301.17 87.7027 301.157 90.4718 301.183 93.7541C301.183 94.2404 301.183 94.7131 301.183 95.1994C301.183 95.6857 301.157 96.199 301.132 96.7528H301.424C301.5 96.3881 301.602 95.9963 301.729 95.5776C301.868 95.1589 301.995 94.7401 302.135 94.3349L305.602 85.4199H310.402C310.377 87.1084 310.364 89.1075 310.364 91.4038C310.364 94.3619 310.364 96.3745 310.39 97.4552L310.428 99.9811H306.935C306.974 96.8338 306.986 93.9297 306.961 91.2687C306.961 91.0121 306.961 90.7419 306.961 90.4447C306.961 90.1476 306.974 89.8639 306.986 89.5803L307.012 88.7293H306.72C306.593 89.3101 306.389 89.972 306.123 90.7149L305.869 91.2822L302.529 99.9946H297.754L297.767 99.9811Z" fill="white"/>
<path d="M313.298 99.9811C313.323 98.3332 313.336 95.8478 313.336 92.5384C313.336 89.229 313.323 86.9328 313.298 85.4334H316.739C316.701 87.7027 316.689 90.4718 316.714 93.7541C316.714 94.2404 316.714 94.7131 316.714 95.1994C316.714 95.6857 316.689 96.199 316.663 96.7528H316.955C317.031 96.3881 317.133 95.9963 317.26 95.5776C317.4 95.1589 317.527 94.7401 317.666 94.3349L321.133 85.4199H325.934C325.908 87.1084 325.896 89.1075 325.896 91.4038C325.896 94.3619 325.896 96.3745 325.921 97.4552L325.959 99.9811H322.467C322.505 96.8338 322.518 93.9297 322.492 91.2687C322.492 91.0121 322.492 90.7419 322.492 90.4447C322.492 90.1476 322.505 89.8639 322.518 89.5803L322.543 88.7293H322.251C322.124 89.3101 321.921 89.972 321.654 90.7149L321.4 91.2822L318.06 99.9946H313.285L313.298 99.9811Z" fill="white"/>
<path d="M183.444 71.2495C179.507 71.2495 176.281 70.5201 173.754 69.0613C171.227 67.6024 169.373 65.3737 168.167 62.375C166.973 59.3898 166.363 55.6077 166.363 51.0557C166.363 46.5036 166.973 42.789 168.179 39.8309C169.398 36.8727 171.265 34.671 173.792 33.2257C176.319 31.7804 179.532 31.0645 183.431 31.0645C187.101 31.0645 190.124 31.6723 192.498 32.9015C194.86 34.1307 196.638 35.9002 197.819 38.21C199 40.5198 199.724 43.3969 199.978 46.8278L190.682 47.8949C190.365 44.5585 189.527 42.1272 188.193 40.5738C186.847 39.0204 184.853 38.2505 182.199 38.2505C181.336 38.2505 180.548 38.345 179.824 38.5341C179.101 38.7233 178.44 39.0069 177.831 39.3716C177.158 41.1006 176.637 43.0322 176.269 45.1394C175.9 47.2465 175.723 49.5428 175.723 52.0282C175.723 54.7162 176.04 56.945 176.675 58.7145C177.31 60.484 178.288 61.8212 179.596 62.7127C180.904 63.6177 182.58 64.0635 184.625 64.0635C185.387 64.0635 186.111 63.9824 186.784 63.8338C187.457 63.6852 188.079 63.4556 188.65 63.1449C189.095 62.267 189.463 61.2809 189.755 60.2138C190.047 59.1467 190.289 57.985 190.479 56.7153H199.775C199.331 61.47 197.781 65.09 195.152 67.5484C192.511 70.0068 188.612 71.2495 183.431 71.2495H183.444Z" fill="white"/>
<path d="M202.715 37.5527H227.885V44.7388C225.396 44.6037 221.815 44.5362 217.141 44.5362H214.17C209.242 44.5362 205.432 44.6037 202.715 44.7388V37.5527ZM219.922 43.6176C219.757 52.5867 219.757 61.5692 219.922 70.5382H210.576C210.766 61.5692 210.766 52.5867 210.576 43.6176H219.922Z" fill="white"/>
<path d="M240.726 71.1948C238.77 71.1948 237.068 70.8571 235.595 70.1817C234.122 69.5064 232.979 68.5473 232.166 67.3046C231.354 66.0619 230.947 64.6301 230.947 62.9957C230.947 60.9156 231.62 59.1596 232.966 57.7143C234.313 56.2689 236.103 55.1883 238.338 54.4454C240.573 53.716 242.999 53.3513 245.628 53.3513C246.847 53.3513 248.84 53.4594 251.622 53.662V52.892C251.584 51.1225 251.418 49.6097 251.088 48.3535C250.771 47.0973 250.136 46.0842 249.196 45.3143C248.256 44.5444 246.898 44.1662 245.145 44.1662C244.535 44.2337 243.989 44.3823 243.52 44.5984C243.037 44.8145 242.592 45.1117 242.173 45.4899C241.792 46.2328 241.45 47.1108 241.17 48.0969C240.878 49.0829 240.675 50.1905 240.548 51.4062L231.582 50.0825C231.938 47.1243 232.738 44.6659 234.008 42.6938C235.265 40.7217 236.979 39.2494 239.138 38.2633C241.297 37.2773 243.812 36.791 246.694 36.791C250.085 36.791 252.803 37.3854 254.873 38.574C256.93 39.7627 258.428 41.4917 259.355 43.7474C260.283 46.0032 260.765 48.8398 260.79 52.2437C260.79 55.0668 260.803 57.0389 260.841 58.16V62.0907C260.867 64.9408 260.892 67.7639 260.892 70.5599H251.545L252.218 61.8881H251.596C251.152 63.7251 250.441 65.346 249.488 66.7373C248.523 68.1286 247.317 69.2227 245.843 70.0331C244.37 70.8301 242.681 71.2353 240.764 71.2353L240.726 71.1948ZM244.751 64.1574C245.716 64.1574 246.669 63.8602 247.634 63.2659C248.599 62.6715 249.437 61.9961 250.174 61.2262C250.91 60.4563 251.406 59.8349 251.66 59.3622V56.458C251.114 56.431 250.53 56.404 249.907 56.377C249.285 56.3635 248.714 56.35 248.206 56.35H247.875C246.466 56.3905 245.183 56.5256 244.015 56.7552C242.846 56.9983 241.881 57.4306 241.119 58.0519C240.357 58.6868 239.964 59.5243 239.964 60.5778C239.964 61.807 240.408 62.6985 241.284 63.2794C242.161 63.8602 243.316 64.1438 244.764 64.1438L244.751 64.1574Z" fill="white"/>
<path d="M267.495 77.1085C267.521 75.5417 267.546 73.8667 267.571 72.0567C267.584 70.2602 267.609 68.3826 267.648 66.4511L267.597 54.0106C267.597 46.0951 267.559 40.5976 267.495 37.5449H277.185C277.121 38.1527 277.045 38.8416 276.969 39.6115C276.893 40.3814 276.804 41.2054 276.702 42.0834C276.6 42.7993 276.512 43.4882 276.435 44.15C276.359 44.8119 276.296 45.4333 276.27 46.0141L276.842 46.0681C277.667 43.5557 279.013 41.3945 280.867 39.598C282.722 37.8015 285.058 36.8965 287.865 36.8965C290.354 36.8965 292.398 37.5989 293.973 39.0172C295.56 40.422 296.691 42.4211 297.376 44.9875C298.062 47.554 298.405 50.6067 298.405 54.1457C298.405 57.6846 297.986 60.8319 297.161 63.3983C296.335 65.9648 295.078 67.9099 293.427 69.2336C291.763 70.5574 289.731 71.2192 287.344 71.2192C285.719 71.2192 284.182 70.8275 282.76 70.0441C281.337 69.2606 280.105 68.153 279.064 66.7077C278.023 65.2624 277.261 63.5604 276.791 61.5883H276.258C276.283 62.1962 276.334 62.7905 276.372 63.3443C276.423 63.9116 276.473 64.4519 276.537 65.0057C276.639 66.2619 276.74 67.5182 276.854 68.7744C276.969 70.0306 277.032 71.2598 277.07 72.4484L277.121 77.1356H267.482L267.495 77.1085ZM283.407 64.1007C284.144 64.1007 284.88 63.9927 285.642 63.763C286.392 63.5469 287.077 63.2498 287.674 62.8715C288.182 61.7099 288.563 60.4132 288.83 58.9679C289.084 57.5225 289.211 55.9152 289.211 54.1457C289.211 52.6193 289.02 51.0659 288.665 49.4991C288.296 47.9322 287.662 46.5949 286.747 45.5008C285.833 44.3932 284.601 43.8394 283.026 43.8394C281.591 43.8394 280.347 44.2176 279.305 44.9605C278.264 45.7034 277.413 46.757 276.74 48.1213V55.1587C276.74 56.7931 277.045 58.2925 277.655 59.6432C278.264 61.0075 279.077 62.0881 280.105 62.8851C281.134 63.682 282.226 64.0872 283.42 64.0872L283.407 64.1007Z" fill="white"/>
<path d="M301.479 37.5527H326.648V44.7388C324.159 44.6037 320.578 44.5362 315.905 44.5362H312.933C308.006 44.5362 304.196 44.6037 301.479 44.7388V37.5527ZM318.686 43.6176C318.521 52.5867 318.521 61.5692 318.686 70.5382H309.339C309.53 61.5692 309.53 52.5867 309.339 43.6176H318.686Z" fill="white"/>
<path d="M243.089 116.591C243.015 120.559 243.015 124.527 243.089 128.495H238.764C238.852 124.527 238.852 120.559 238.764 116.591H243.089ZM235.148 113.908H246.792V117.087C245.639 117.027 243.983 116.997 241.824 116.997H240.427C238.165 116.997 236.405 117.027 235.148 117.087V113.908Z" fill="white"/>
<path d="M226.614 128.764C224.322 128.764 222.592 128.148 221.424 126.916C220.256 125.668 219.672 123.782 219.672 121.257C219.672 118.717 220.285 116.816 221.513 115.553C222.755 114.275 224.596 113.637 227.035 113.637C228.499 113.637 229.704 113.892 230.65 114.403C231.612 114.914 232.336 115.681 232.824 116.703C233.327 117.725 233.622 119.017 233.711 120.581L229.586 120.919C229.527 119.566 229.253 118.529 228.765 117.808C228.277 117.086 227.59 116.725 226.703 116.725C226.274 116.725 225.86 116.801 225.461 116.951C225.061 117.086 224.714 117.281 224.418 117.537C224.256 118.108 224.137 118.694 224.063 119.296C224.004 119.897 223.975 120.558 223.975 121.279C223.975 122.136 224.085 122.895 224.307 123.557C224.529 124.218 224.862 124.729 225.305 125.09C225.764 125.45 226.333 125.631 227.013 125.631C227.368 125.631 227.715 125.586 228.056 125.495C228.41 125.39 228.721 125.247 228.987 125.067C229.105 124.691 229.209 124.293 229.298 123.872C229.401 123.451 229.475 123.023 229.519 122.587L233.645 122.677C233.497 124.045 233.164 125.18 232.647 126.082C232.144 126.968 231.397 127.637 230.407 128.088C229.431 128.539 228.166 128.764 226.614 128.764ZM222.489 120.287L230.65 119.566L233.401 119.994L233.711 120.648L222.533 121.64L222.489 120.287Z" fill="white"/>
<path d="M212.958 128.495C212.988 126.796 213.003 124.91 213.003 122.836C213.003 120.762 212.988 118.838 212.958 117.065C212.042 117.065 211.066 117.072 210.031 117.087C208.996 117.087 208.182 117.11 207.591 117.155V113.908H217.305C217.246 115.592 217.217 117.944 217.217 120.965C217.217 124.316 217.246 126.826 217.305 128.495H212.958ZM203.688 124.775C204.175 124.745 204.545 124.677 204.796 124.572C205.048 124.452 205.247 124.226 205.395 123.896C205.558 123.55 205.669 123.016 205.728 122.295C205.861 119.439 205.883 116.644 205.795 113.908H207.835C207.835 114.66 207.82 115.562 207.791 116.614C207.776 117.651 207.754 118.74 207.724 119.883C207.695 121.115 207.665 122.085 207.635 122.791C207.532 124.234 207.34 125.376 207.059 126.218C206.793 127.059 206.386 127.676 205.839 128.066C205.307 128.457 204.589 128.668 203.688 128.698V124.775Z" fill="white"/>
<path d="M189.617 128.79C187.99 128.79 186.601 128.564 185.447 128.113C184.294 127.663 183.399 126.979 182.764 126.062C182.143 125.145 181.832 123.995 181.832 122.613C182.157 122.402 182.423 122.192 182.63 121.981L183.451 121.418L183.562 121.282L186.49 121.373C186.46 121.568 186.43 121.793 186.401 122.049C186.371 122.289 186.357 122.507 186.357 122.703C186.357 123.199 186.467 123.672 186.689 124.123C186.926 124.574 187.295 124.95 187.798 125.25C188.301 125.536 188.937 125.679 189.706 125.679C190.46 125.679 191.073 125.498 191.546 125.138C192.02 124.762 192.278 124.288 192.323 123.717C192.323 122.59 192.049 121.673 191.502 120.967C190.97 120.26 190.142 119.907 189.018 119.907C188.308 119.907 187.643 119.997 187.022 120.178C186.401 120.343 185.817 120.561 185.27 120.831L185.225 120.696L182.165 120.493L182.231 111.295H195.672V114.857C194.489 114.782 192.958 114.729 191.081 114.699C189.203 114.654 187.377 114.632 185.602 114.632L185.403 119.073L185.625 119.095C186.157 118.389 186.852 117.878 187.709 117.562C188.567 117.232 189.462 117.066 190.393 117.066C191.428 117.066 192.419 117.269 193.365 117.675C194.311 118.081 195.095 118.72 195.716 119.591C196.337 120.463 196.648 121.568 196.648 122.906C196.648 124.258 196.322 125.378 195.672 126.265C195.021 127.137 194.164 127.775 193.099 128.181C192.049 128.587 190.888 128.79 189.617 128.79Z" fill="white"/>
<path d="M166 128.495C166 128.39 166 128.284 166 128.179C166 128.074 166.007 127.976 166.022 127.886C166.067 126.624 166.229 125.579 166.51 124.752C166.791 123.911 167.257 123.159 167.907 122.498C168.573 121.837 169.482 121.265 170.635 120.785C172.203 120.093 173.556 119.282 174.694 118.35C174.946 118.034 175.3 117.636 175.759 117.155C175.759 117.065 175.759 116.974 175.759 116.884C175.759 116.779 175.751 116.681 175.737 116.591C175.707 116.02 175.581 115.554 175.36 115.193C175.153 114.818 174.864 114.532 174.495 114.337C174.125 114.141 173.659 114.044 173.097 114.044C172.757 114.044 172.395 114.066 172.011 114.111C171.818 114.141 171.641 114.179 171.478 114.224C171.316 114.269 171.182 114.322 171.079 114.382C170.828 114.727 170.643 115.111 170.525 115.532C170.406 115.952 170.34 116.426 170.325 116.952C170.325 117.117 170.332 117.29 170.347 117.47C170.362 117.636 170.391 117.801 170.436 117.966L166.111 117.989C166.081 117.839 166.059 117.681 166.044 117.516C166.03 117.35 166.022 117.192 166.022 117.042C166.052 115.614 166.333 114.457 166.865 113.57C167.397 112.683 168.166 112.037 169.172 111.631C170.192 111.21 171.478 111 173.031 111C174.598 111 175.899 111.18 176.934 111.541C177.969 111.887 178.76 112.473 179.307 113.3C179.854 114.111 180.128 115.208 180.128 116.591C180.128 117.658 179.854 118.545 179.307 119.251C178.775 119.943 177.918 120.612 176.735 121.258C176.542 121.363 176.321 121.476 176.069 121.596C175.833 121.701 175.589 121.807 175.337 121.912C174.391 122.348 173.556 122.708 172.831 122.994C172.121 123.264 171.508 123.528 170.99 123.783C170.872 123.843 170.754 123.911 170.635 123.986C170.532 124.046 170.421 124.106 170.303 124.166C170.155 124.302 169.955 124.429 169.704 124.55L169.682 124.798C169.859 124.798 170.022 124.798 170.17 124.798C170.318 124.783 170.458 124.767 170.591 124.752C171.182 124.707 171.678 124.685 172.077 124.685C173.26 124.685 174.361 124.685 175.382 124.685C176.417 124.67 177.385 124.655 178.287 124.64C178.598 124.64 178.893 124.64 179.174 124.64C179.47 124.625 179.766 124.617 180.061 124.617V128.495H166Z" fill="white"/>
</g>
<defs>
<clipPath id="clip0_1528_31">
<rect width="327" height="133" fill="white"/>
</clipPath>
</defs>
</svg>
