<svg width="305" height="248" viewBox="0 0 305 248" fill="none" xmlns="http://www.w3.org/2000/svg">
<path d="M2.94437 79.1994V58.2424C2.94437 55.3558 3.49283 52.6423 4.58975 50.1021C5.68667 47.5619 7.18772 45.3392 9.09289 43.434C10.9981 41.5288 13.2208 40.0278 15.761 38.9308C18.3013 37.8339 21.0147 37.2855 23.9013 37.2855H41.5675V51.4877H23.9013C22.2848 51.4877 20.8992 52.1516 19.7446 53.4795C18.6477 54.8073 18.0992 56.395 18.0992 58.2424V79.1994H2.94437ZM2.94437 32.7823V18.5801H57.5017V32.7823H2.94437Z" fill="black"/>
<path d="M49.4731 79.1994V64.9971C51.5514 64.9971 53.4855 64.593 55.2752 63.7848C57.1226 62.9765 58.7969 61.995 60.2979 60.8404C61.799 59.6857 63.098 58.4445 64.1949 57.1166C65.3495 55.7888 66.3021 54.5764 67.0527 53.4795C69.0156 50.5351 70.9207 47.3598 72.7682 43.9536C74.6734 40.4896 76.2321 36.7659 77.4445 32.7823H64.6279V18.5801H110.092V79.1994H94.9375V72.0983H70.0836C66.9083 74.3498 63.5887 76.1107 60.1247 77.3808C56.6608 78.5932 53.1102 79.1994 49.4731 79.1994ZM83.5065 57.9826H94.9375V32.7823H93.6385C92.7148 37.5164 91.387 41.9907 89.655 46.2052C87.9807 50.4196 85.9312 54.3455 83.5065 57.9826Z" fill="#1CB596"/>
<path d="M115.627 32.7823V18.5801H144.464C147.408 18.5801 150.151 19.1574 152.691 20.3121C155.289 21.409 157.54 22.91 159.446 24.8152C161.351 26.7204 162.852 28.972 163.949 31.5699C165.103 34.1102 165.681 36.8525 165.681 39.7968C165.681 43.9536 164.584 47.7351 162.39 51.1413C160.196 54.4898 157.338 57.0589 153.817 58.8486C153.932 60.5806 154.538 62.0528 155.635 63.2652C156.79 64.4198 158.118 64.9971 159.619 64.9971H164.122V79.1994H159.619C156.905 79.1994 154.336 78.7086 151.912 77.7272C149.487 76.7457 147.322 75.4179 145.417 73.7436C143.569 72.0117 142.039 69.991 140.827 67.6817C139.672 65.3724 138.979 62.8899 138.749 60.2342C138.633 60.2342 138.546 60.2342 138.489 60.2342C138.489 60.1765 138.46 60.1476 138.402 60.1476V79.1994H123.247V32.7823H115.627ZM138.402 39.7968C138.402 41.7597 138.979 43.434 140.134 44.8196C141.346 46.1474 142.79 46.8113 144.464 46.8113C146.138 46.8113 147.553 46.1474 148.707 44.8196C149.92 43.434 150.526 41.7597 150.526 39.7968C150.526 37.8339 149.92 36.1885 148.707 34.8607C147.553 33.4751 146.138 32.7823 144.464 32.7823H138.402V39.7968Z" fill="#1CB596"/>
<path d="M2.94437 121.178H41.5675V135.38H18.0992V142.135C18.0992 143.983 18.6477 145.57 19.7446 146.898C20.8992 148.226 22.2848 148.89 23.9013 148.89H57.5017V163.092H23.9013C21.0147 163.092 18.3013 162.544 15.761 161.447C13.2208 160.35 10.9981 158.849 9.09289 156.944C7.18772 155.038 5.68667 152.816 4.58975 150.275C3.49283 147.735 2.94437 145.022 2.94437 142.135V121.178ZM2.94437 102.473H57.5017V116.675H2.94437V102.473Z" fill="black"/>
<path d="M59.7905 163.092V148.89C61.8689 148.89 63.8029 148.486 65.5926 147.678C67.4401 146.869 69.1143 145.888 70.6154 144.733C72.1164 143.578 73.4154 142.337 74.5123 141.009C75.667 139.682 76.6196 138.469 77.3701 137.372C79.333 134.428 81.2382 131.253 83.0856 127.846C84.9908 124.382 86.5496 120.659 87.762 116.675H74.9453V102.473H120.41V163.092H105.255V155.991H80.4011C77.2258 158.243 73.9062 160.003 70.4422 161.274C66.9782 162.486 63.4277 163.092 59.7905 163.092ZM93.8239 141.875H105.255V116.675H103.956C103.032 121.409 101.704 125.883 99.9724 130.098C98.2982 134.312 96.2487 138.238 93.8239 141.875Z" fill="#1CB596"/>
<path d="M147.594 102.473H170.369V116.675H147.594C145.92 116.675 144.476 117.368 143.264 118.753C142.109 120.081 141.532 121.727 141.532 123.69C141.532 125.653 142.109 127.327 143.264 128.712C144.476 130.04 145.92 130.704 147.594 130.704H150.625C152.876 130.704 154.984 131.137 156.946 132.003C158.909 132.811 160.612 133.966 162.056 135.467C163.557 136.91 164.712 138.613 165.52 140.576C166.386 142.539 166.819 144.647 166.819 146.898C166.819 149.15 166.386 151.257 165.52 153.22C164.712 155.183 163.557 156.915 162.056 158.416C160.612 159.859 158.909 161.014 156.946 161.88C154.984 162.688 152.876 163.092 150.625 163.092H132.959V148.89H150.625C150.913 148.89 151.144 148.717 151.318 148.37C151.548 147.966 151.664 147.475 151.664 146.898C151.664 146.321 151.548 145.859 151.318 145.513C151.144 145.108 150.913 144.906 150.625 144.906H147.594C144.649 144.906 141.878 144.358 139.28 143.261C136.74 142.106 134.517 140.576 132.612 138.671C130.707 136.766 129.177 134.543 128.022 132.003C126.925 129.405 126.377 126.634 126.377 123.69C126.377 120.745 126.925 118.003 128.022 115.463C129.177 112.865 130.707 110.613 132.612 108.708C134.517 106.803 136.74 105.302 139.28 104.205C141.878 103.05 144.649 102.473 147.594 102.473Z" fill="#1CB596"/>
<path d="M232.887 102.473V124.209H217.732V116.675H210.198V142.135C210.198 143.983 210.747 145.57 211.843 146.898C212.998 148.226 214.384 148.89 216 148.89H225.353V163.092H216C213.114 163.092 210.4 162.544 207.86 161.447C205.32 160.35 203.097 158.849 201.192 156.944C199.287 155.038 197.786 152.816 196.689 150.275C195.592 147.735 195.043 145.022 195.043 142.135V116.675H172.268V102.473H232.887Z" fill="#1CB596"/>
<path d="M60.6193 186.366V208.102H45.4645V200.568H37.9304V226.028C37.9304 227.875 38.4788 229.463 39.5757 230.791C40.7304 232.119 42.116 232.783 43.7325 232.783H53.0852V246.985H43.7325C40.8459 246.985 38.1324 246.436 35.5922 245.34C33.0519 244.243 30.8292 242.742 28.9241 240.836C27.0189 238.931 25.5178 236.708 24.4209 234.168C23.324 231.628 22.7755 228.915 22.7755 226.028V200.568H0V186.366H60.6193Z" fill="black"/>
<path d="M65.3565 205.071H103.98V219.273H80.5114V226.028C80.5114 227.875 81.0598 229.463 82.1567 230.791C83.3114 232.119 84.697 232.783 86.3135 232.783H119.914V246.985H86.3135C83.4269 246.985 80.7134 246.436 78.1732 245.34C75.6329 244.243 73.4102 242.742 71.5051 240.836C69.5999 238.931 68.0988 236.708 67.0019 234.168C65.905 231.628 65.3565 228.915 65.3565 226.028V205.071ZM65.3565 186.366H119.914V200.568H65.3565V186.366Z" fill="#1CB596"/>
<path d="M122.151 215.896C122.151 211.624 122.959 207.611 124.575 203.859C126.25 200.048 128.472 196.729 131.243 193.9C134.072 191.071 137.363 188.848 141.116 187.232C144.926 185.615 148.967 184.807 153.24 184.807C158.955 184.807 164.267 186.366 169.174 189.483V186.366H184.329V217.455H169.174C169.174 214.914 168.741 212.519 167.875 210.267C167.067 208.015 165.941 206.052 164.497 204.378C163.054 202.704 161.351 201.405 159.388 200.481C157.483 199.5 155.433 199.009 153.24 199.009C151.046 199.009 148.967 199.471 147.004 200.395C145.099 201.261 143.425 202.473 141.982 204.032C140.538 205.533 139.384 207.323 138.518 209.401C137.71 211.422 137.305 213.587 137.305 215.896C137.305 218.205 137.71 220.399 138.518 222.477C139.384 224.556 140.538 226.345 141.982 227.847C143.425 229.348 145.099 230.56 147.004 231.484C148.967 232.35 151.046 232.783 153.24 232.783H184.329V246.985H153.24C148.967 246.985 144.926 246.177 141.116 244.56C137.363 242.886 134.072 240.663 131.243 237.892C128.472 235.063 126.25 231.772 124.575 228.02C122.959 224.209 122.151 220.168 122.151 215.896Z" fill="#1CB596"/>
<path d="M192.319 246.985V186.366H207.474V220.659C212.035 217.945 217.087 216.589 222.629 216.589C228.287 216.589 233.339 217.945 237.784 220.659V186.366H252.939V246.985H237.784V246.898C237.784 244.647 237.38 242.568 236.572 240.663C235.821 238.7 234.753 236.997 233.367 235.554C231.982 234.053 230.365 232.898 228.518 232.09C226.67 231.224 224.707 230.791 222.629 230.791C220.551 230.791 218.588 231.224 216.74 232.09C214.893 232.898 213.276 234.053 211.891 235.554C210.563 236.997 209.495 238.7 208.687 240.663C207.878 242.568 207.474 244.647 207.474 246.898V246.985H192.319Z" fill="#1CB596"/>
<path d="M301.617 111.378C301.617 93.6644 289.041 79.5923 273.779 79.2078C284.624 84.9325 292.027 97.2776 292.027 111.378V247.619H288.644V111.378C288.644 93.6644 276.068 79.5923 260.806 79.2078C271.65 84.9325 279.053 97.2774 279.053 111.378V247.619H275.67V111.378C275.67 93.6645 263.095 79.5924 247.833 79.2078C258.677 84.9325 266.08 97.2775 266.08 111.378V247.619H262.698V111.378C262.697 93.5571 249.969 79.4214 234.582 79.2018L234.219 79.1992H204.049C199.437 79.1992 195.836 77.5661 193.116 74.7527C190.446 71.9914 188.716 68.191 187.57 63.9701C185.287 55.5682 185.161 44.8589 185.161 35.5614L185.151 34.7223C184.759 17.2991 172.191 3.60192 157.047 3.38542L156.683 3.38277H130.736V0H195.601C213.362 0 227.441 16.0859 227.462 35.5165C227.462 44.9143 227.606 55.1798 229.753 63.0834C230.823 67.022 232.351 70.212 234.467 72.4013C236.533 74.5384 239.249 75.8164 242.968 75.8164H273.138C290.913 75.8164 305 91.9271 305 111.378V247.619H301.617V111.378ZM170.297 3.39136C181.129 9.10999 188.528 21.4349 188.543 35.5165L188.545 37.2878C188.569 46.1882 188.821 55.6737 190.834 63.0834C191.904 67.022 193.432 70.212 195.548 72.4013C197.614 74.5384 200.33 75.8164 204.049 75.8164H207.229C206.833 75.4835 206.453 75.1289 206.09 74.7527C203.42 71.9914 201.69 68.191 200.543 63.9701C198.261 55.5682 198.134 44.859 198.133 35.5614L198.124 34.7223C197.735 17.4055 185.317 3.76992 170.297 3.39136ZM196.243 3.39136C207.075 9.10994 214.474 21.4347 214.49 35.5165L214.492 37.2878C214.515 46.1882 214.768 55.6737 216.78 63.0834C217.85 67.022 219.378 70.212 221.494 72.4013C223.561 74.5384 226.276 75.8164 229.995 75.8164H233.175C232.779 75.4835 232.399 75.1289 232.035 74.7527C229.366 71.9914 227.635 68.191 226.489 63.9701C224.206 55.5682 224.08 44.8589 224.08 35.5614L224.07 34.7223C223.681 17.4054 211.263 3.76973 196.243 3.39136ZM183.27 3.39136C194.102 9.10996 201.501 21.4348 201.516 35.5165C201.516 44.9143 201.66 55.1798 203.807 63.0834C204.877 67.0219 206.404 70.212 208.521 72.4013C210.587 74.5383 213.302 75.8164 217.021 75.8164H220.202C219.806 75.4834 219.426 75.129 219.062 74.7527C216.393 71.9914 214.662 68.191 213.516 63.9701C211.234 55.5682 211.107 44.8589 211.107 35.5614L211.097 34.7223C210.707 17.4055 198.29 3.76987 183.27 3.39136Z" fill="url(#paint0_linear_1474_13)"/>
<defs>
<linearGradient id="paint0_linear_1474_13" x1="171.617" y1="-22.9606" x2="171.617" y2="274.079" gradientUnits="userSpaceOnUse">
<stop/>
<stop offset="1" stop-color="#1CB596"/>
</linearGradient>
</defs>
</svg>
